<svg xmlns="http://www.w3.org/2000/svg" xmlns:xlink="http://www.w3.org/1999/xlink" xml:space="preserve" viewBox="0 0 46.247 53.553"><defs><linearGradient id="b"><stop offset="0" stop-color="#3fc2c0"/><stop offset="1" stop-color="#85dbd9"/></linearGradient><linearGradient id="a"><stop offset="0" stop-color="#198cff"/><stop offset=".668" stop-color="#7867eb"/></linearGradient><linearGradient xlink:href="#a" id="c" x1="26.765" x2="217.044" y1="126.576" y2="126.576" gradientUnits="userSpaceOnUse" spreadMethod="pad"/><linearGradient xlink:href="#b" id="d" x1="26.765" x2="217.044" y1="126.576" y2="126.576" gradientUnits="userSpaceOnUse"/></defs><path fill="url(#c)" stroke="url(#d)" stroke-linecap="round" stroke-width="10.87" d="m211.608 74.824-.033 103.562-89.703 51.752-89.67-51.81.032-103.561 89.704-51.753z" color="#000" overflow="visible" style="marker:none" transform="matrix(.2430466 0 0 .24378567 -6.505 -4.08)"/><g fill="#fff" stroke-width="4.83"><path d="M7.714 32.872v-1.46c1.906 0 7.716.03 10.069.03 5.123 0 10.248-.03 15.372-.03 1.877 0 3.455-1.162 3.932-2.949.298-1.102.15-2.145-.625-3.039-.686-.774-1.52-1.101-2.533-1.042-.983.09-1.876.953-2.026 1.936-.09.775.15 1.37.805 1.788.476.297 1.013.328 1.55.089.177-.09.326-.209.446-.387.208-.357.625-.477.953-.268.357.178.477.595.298.983-.268.536-.715.864-1.251 1.072-1.847.715-3.933-.477-4.23-2.443-.21-1.43.506-2.949 1.787-3.694 1.042-.626 2.174-.684 3.277-.298 1.638.566 2.681 1.729 3.039 3.426.238 1.222 0 2.383-.597 3.456-.863 1.549-2.204 2.443-3.962 2.74-.297.06-.595.06-.893.06-3.039.03-21.926.03-25.411.03z"/><path d="M15.897 30.027h-7.67v-1.221h13.3c.966 0 1.575-.43 1.81-1.291.135-.54-.04-1.328-.4-1.766-.284-.33-.844-.518-1.397-.489-.42.023-.845.44-.894.882-.047.33.064.574.335.756a.71.71 0 0 0 .655.042c.251-.083.508-.083.714.124.337.38.134.888-.326 1.072-1.15.44-2.456-.308-2.624-1.516-.132-.858.32-1.783 1.092-2.252.593-.344 1.567-.382 2.298-.138.911.304 1.57 1.19 1.815 2.277.155.68.024 1.386-.352 2.067-.484.848-1.123 1.246-2.205 1.448-.144.03-.266.035-.55.035h-5.005l-.037-.003a3.311 3.311 0 0 0-.559-.027zm21.947 6.022c.447.894.422 1.775-.136 2.58-.518.746-1.246 1.086-2.166 1.02-.9-.067-1.648-.794-1.779-1.688a1.079 1.079 0 0 1-.032-.203c-.004-.05-.004-.088-.004-.179l.001-.032a.642.642 0 0 1 .64-.55c.32 0 .592.233.635.538.01.048.015.084.026.164a.93.93 0 0 0 .052.244c.133.332.49.498.875.402.543-.125.89-.616.84-1.195a1.518 1.518 0 0 0-1.232-1.35.777.777 0 0 0-.152-.02 2.683 2.683 0 0 0-.18-.004c-1.627 0-3.855.004-9.564.015-5.708.012-7.936.016-9.562.016h-.223v-1.371H35.32c1.12 0 1.988.576 2.524 1.613z"/></g><path fill="#fff" d="M8.944 19.46q-.667 0-1.18-.28-.506-.28-.795-.785-.28-.514-.28-1.208v-.118q0-.685.28-1.2.29-.513.794-.793.514-.28 1.181-.28.668 0 1.173.28.514.28.793.794.289.514.289 1.2v.117q0 .694-.289 1.208-.28.505-.793.785-.505.28-1.173.28zm0-.641q.704 0 1.119-.442.424-.451.424-1.209v-.08q0-.758-.424-1.2-.415-.451-1.119-.451-.694 0-1.118.45-.424.443-.424 1.2v.081q0 .758.424 1.209.424.442 1.118.442zm3.536 2.317v-6.213h.694v.73h.126q.172-.333.55-.595.388-.261 1.074-.261.568 0 1.037.28.478.27.757.775.289.505.289 1.217v.118q0 .703-.28 1.217-.28.514-.757.785-.47.27-1.046.27-.46 0-.785-.126-.316-.117-.514-.307t-.307-.388h-.126v2.498zm2.254-2.308q.686 0 1.11-.433.432-.442.432-1.227v-.08q0-.785-.433-1.218-.423-.442-1.109-.442-.676 0-1.118.442-.433.433-.433 1.217v.081q0 .785.433 1.227.442.433 1.118.433zm5.573.632q-.667 0-1.172-.28-.505-.289-.785-.803t-.28-1.19v-.109q0-.685.28-1.2.28-.513.776-.793.496-.288 1.136-.288.623 0 1.1.27.479.262.75.758.27.496.27 1.163v.325h-3.599q.027.712.46 1.118.433.397 1.082.397.569 0 .875-.262.307-.261.47-.622l.612.298q-.135.28-.378.559-.235.28-.623.469-.378.19-.974.19zm-1.515-2.733h2.868q-.036-.614-.424-.956-.378-.343-.974-.343-.604 0-.992.343-.387.342-.478.956zm4.834 2.606v-4.41h.695v.748h.126q.144-.315.487-.568.352-.261 1.028-.261.496 0 .884.207.396.208.631.613.234.406.234 1.001v2.67H27v-2.615q0-.659-.334-.956-.324-.298-.883-.298-.64 0-1.047.415-.396.415-.396 1.235v2.219zm6.881.127q-.46 0-.839-.163-.378-.163-.595-.47-.216-.306-.216-.748 0-.45.216-.74.217-.297.595-.441.38-.153.848-.153h1.488v-.325q0-.469-.28-.74-.27-.27-.811-.27-.532 0-.83.261-.297.253-.406.686l-.667-.217q.108-.37.343-.667.234-.307.622-.487.397-.19.947-.19.848 0 1.317.443.469.432.469 1.226v1.993q0 .27.252.27h.406v.605h-.622q-.298 0-.478-.162-.18-.172-.18-.451v-.045h-.109q-.1.17-.27.36-.163.18-.451.298-.289.126-.749.126zm.081-.614q.632 0 1.02-.37.396-.379.396-1.055v-.1h-1.46q-.425 0-.704.19-.27.18-.27.55 0 .37.279.577.288.208.74.208zm7.228 2.29v-2.498h-.126q-.109.199-.307.388-.198.19-.523.307-.316.126-.776.126-.577 0-1.055-.27-.469-.271-.748-.785-.28-.514-.28-1.217v-.118q0-.712.28-1.217.28-.505.757-.776.478-.28 1.046-.28.686 0 1.065.262.378.262.559.595h.126v-.73h.694v6.213zm-1.542-2.308q.685 0 1.109-.433.433-.442.433-1.227v-.08q0-.785-.433-1.218-.424-.442-1.11-.442-.676 0-1.117.442-.433.433-.433 1.217v.081q0 .785.433 1.227.441.433 1.118.433z" aria-label="openaq" paint-order="markers fill stroke"/></svg>